<svg preserveAspectRatio="none" overflow="visible" style="display: block;" width="12" height="12" viewBox="0 0 12 12" fill="none" xmlns="http://www.w3.org/2000/svg">
<g id="CheckSquare">
<path id="Vector" d="M9.75 1.5H2.25C2.05109 1.5 1.86032 1.57902 1.71967 1.71967C1.57902 1.86032 1.5 2.05109 1.5 2.25V9.75C1.5 9.94891 1.57902 10.1397 1.71967 10.2803C1.86032 10.421 2.05109 10.5 2.25 10.5H9.75C9.94891 10.5 10.1397 10.421 10.2803 10.2803C10.421 10.1397 10.5 9.94891 10.5 9.75V2.25C10.5 2.05109 10.421 1.86032 10.2803 1.71967C10.1397 1.57902 9.94891 1.5 9.75 1.5ZM8.14031 5.14031L5.51531 7.76531C5.48049 7.80018 5.43913 7.82784 5.3936 7.84671C5.34808 7.86558 5.29928 7.87529 5.25 7.87529C5.20072 7.87529 5.15192 7.86558 5.1064 7.84671C5.06087 7.82784 5.01951 7.80018 4.98469 7.76531L3.85969 6.64031C3.78932 6.56995 3.74979 6.47451 3.74979 6.375C3.74979 6.27549 3.78932 6.18005 3.85969 6.10969C3.93005 6.03932 4.02549 5.99979 4.125 5.99979C4.22451 5.99979 4.31995 6.03932 4.39031 6.10969L5.25 6.96984L7.60969 4.60969C7.64453 4.57485 7.68589 4.54721 7.73141 4.52835C7.77694 4.5095 7.82573 4.49979 7.875 4.49979C7.92427 4.49979 7.97306 4.5095 8.01859 4.52835C8.06411 4.54721 8.10547 4.57485 8.14031 4.60969C8.17515 4.64453 8.20279 4.68589 8.22165 4.73141C8.2405 4.77694 8.25021 4.82573 8.25021 4.875C8.25021 4.92427 8.2405 4.97306 8.22165 5.01859C8.20279 5.06411 8.17515 5.10547 8.14031 5.14031Z" fill="#35A700"/>
</g>
</svg>
